<svg width="180" height="204" viewBox="0 0 180 204" fill="none" xmlns="http://www.w3.org/2000/svg">
<path d="M177.886 56.9985V147.002C177.886 148.757 177.424 150.481 176.546 152.002C175.668 153.522 174.406 154.784 172.886 155.662L94.9431 200.663C93.4222 201.539 91.6979 202 89.9429 202C88.1879 202 86.4637 201.539 84.9428 200.663L7.00017 155.662C5.47996 154.784 4.21756 153.522 3.33985 152.002C2.46214 150.481 2.00004 148.757 2 147.002L2 56.9985C2.00004 55.2431 2.46214 53.5187 3.33985 51.9985C4.21756 50.4783 5.47996 49.2159 7.00017 48.3382L84.9428 3.33671C86.4637 2.46096 88.1879 2 89.9429 2C91.6979 2 93.4222 2.46096 94.9431 3.33671L172.886 48.3382C174.406 49.2159 175.668 50.4783 176.546 51.9985C177.424 53.5187 177.886 55.2431 177.886 56.9985Z" fill="#0C0C0C" stroke="#BBFF00" stroke-width="3"/>
<path d="M89.7467 58H102.404L107.952 78.5485H121.008L112.09 94.0555L124.578 140.69H111.632L103.224 109.411L85.143 140.697H70.6942L98.6303 92.2773L94.1368 75.4678L56.4625 140.704H42L89.7467 58Z" fill="#BBFF00"/>
</svg>
