<svg width="62" height="62" viewBox="0 0 62 62" fill="none" xmlns="http://www.w3.org/2000/svg">
<rect x="0.5" y="0.5" width="61" height="61" rx="24.5" fill="#0C0C0C" stroke="#BBFF00"/>
<path d="M40.95 34.2809H22.05C21.0713 34.281 20.1258 34.6468 19.3882 35.3106C18.6506 35.9745 18.1709 36.8916 18.0378 37.8923L18 38.4607V41.2026L18.0432 41.8045C18.918 48.0129 23.9508 51 31.5 51C38.6874 51 43.596 48.2915 44.8056 42.6739L44.9568 41.8101L45 41.2082V38.4607C45 37.4507 44.6455 36.4748 44.0023 35.7136C43.359 34.9524 42.4704 34.4573 41.5008 34.32L40.95 34.2809ZM31.5 12C29.3517 12 27.2915 12.8807 25.7724 14.4484C24.2534 16.0162 23.4 18.1424 23.4 20.3595C23.4 22.5766 24.2534 24.7029 25.7724 26.2706C27.2915 27.8383 29.3517 28.7191 31.5 28.7191C33.6483 28.7191 35.7085 27.8383 37.2276 26.2706C38.7466 24.7029 39.6 22.5766 39.6 20.3595C39.6 18.1424 38.7466 16.0162 37.2276 14.4484C35.7085 12.8807 33.6483 12 31.5 12Z" fill="url(#paint0_linear_853_1066)"/>
<defs>
<linearGradient id="paint0_linear_853_1066" x1="36.7826" y1="13.7727" x2="18.9772" y2="52.6827" gradientUnits="userSpaceOnUse">
<stop stop-color="#BF00FF"/>
<stop offset="0.916667" stop-color="#430458"/>
</linearGradient>
</defs>
</svg>
