<?xml version="1.0" encoding="UTF-8"?><svg id="Layer_1" xmlns="http://www.w3.org/2000/svg" viewBox="0 0 1000 1000"><defs><style>.cls-1{fill:#fff;}.cls-2{fill:#bd00ff;}.cls-3{fill:#1a1a1a;}</style></defs><circle class="cls-3" cx="500" cy="500" r="493.1"/><path class="cls-1" d="M500,1000c-67.5,0-132.98-13.22-194.62-39.3-59.54-25.18-113.01-61.23-158.93-107.15-45.92-45.92-81.97-99.39-107.15-158.93C13.22,632.98,0,567.5,0,500s13.22-132.98,39.3-194.62c25.18-59.54,61.23-113.01,107.15-158.93,45.92-45.92,99.39-81.97,158.93-107.15C367.02,13.22,432.5,0,500,0s132.98,13.22,194.62,39.3c59.54,25.18,113.01,61.23,158.93,107.15,45.92,45.92,81.97,99.39,107.15,158.93,26.07,61.65,39.3,127.13,39.3,194.62s-13.22,132.98-39.3,194.62c-25.18,59.54-61.23,113.01-107.15,158.93-45.92,45.92-99.39,81.97-158.93,107.15-61.65,26.07-127.13,39.3-194.62,39.3Zm0-986.19C231.91,13.81,13.81,231.91,13.81,500s218.11,486.19,486.19,486.19,486.19-218.11,486.19-486.19S768.09,13.81,500,13.81Z"/><path class="cls-1" d="M620.62,623.81c0,35.36-28.77,64.13-64.13,64.13s-64.13-28.77-64.13-64.13v-124.27h-91.61v124.27c0,85.87,69.87,155.74,155.74,155.74s155.74-69.87,155.74-155.74h-91.61Z"/><path class="cls-2" d="M662.95,536.38h-91.61c0-42.89,19.74-76.07,40.97-98.05-21.23-21.98-40.97-55.16-40.97-98.05h91.61c0,27.55,25.41,42.86,25.67,43l23.61,13.08v84.89l-23.35,11.99c-3.11,1.94-25.93,17.07-25.93,43.14Z"/><rect class="cls-2" x="400.75" y="394.77" width="91.61" height="91.61"/><rect class="cls-1" x="400.75" y="290.69" width="91.61" height="91.61"/><rect class="cls-2" x="296.92" y="394.77" width="91.61" height="91.61"/><rect class="cls-2" x="504.58" y="394.77" width="119.57" height="91.61"/></svg>