<svg width="32" height="25" viewBox="0 0 32 25" fill="none" xmlns="http://www.w3.org/2000/svg">
<path d="M2.66667 0.570312H29.3333C30.7333 0.570312 32 1.83698 32 3.23698V21.9036C32 23.3036 30.7333 24.5703 29.3333 24.5703H2.66667C1.26667 24.5703 0 23.3036 0 21.9036V3.23698C0 1.83698 1.26667 0.570312 2.66667 0.570312ZM18.6667 4.57031V5.90365H29.3333V4.57031H18.6667ZM18.6667 7.23698V8.57031H29.3333V7.23698H18.6667ZM18.6667 9.90365V11.237H28V9.90365H18.6667ZM10.6667 15.117C8 15.117 2.66667 16.5703 2.66667 19.237V20.5703H18.6667V19.237C18.6667 16.5703 13.3333 15.117 10.6667 15.117ZM10.6667 4.57031C9.6058 4.57031 8.58839 4.99174 7.83824 5.74189C7.08809 6.49203 6.66667 7.50945 6.66667 8.57031C6.66667 9.63118 7.08809 10.6486 7.83824 11.3987C8.58839 12.1489 9.6058 12.5703 10.6667 12.5703C11.7275 12.5703 12.7449 12.1489 13.4951 11.3987C14.2452 10.6486 14.6667 9.63118 14.6667 8.57031C14.6667 7.50945 14.2452 6.49203 13.4951 5.74189C12.7449 4.99174 11.7275 4.57031 10.6667 4.57031Z" fill="url(#paint0_linear_1465_6543)"/>
<defs>
<linearGradient id="paint0_linear_1465_6543" x1="16" y1="0.570312" x2="16" y2="24.5703" gradientUnits="userSpaceOnUse">
<stop stop-color="#BF00FF"/>
<stop offset="1" stop-color="#300039" stop-opacity="0.85"/>
</linearGradient>
</defs>
</svg>
