<svg width="29" height="22" viewBox="0 0 29 22" fill="none" xmlns="http://www.w3.org/2000/svg">
<path d="M23.4 10C20.43 10 18 12.43 18 15.4C18 18.37 20.43 20.8 23.4 20.8C26.37 20.8 28.8 18.37 28.8 15.4C28.8 12.43 26.37 10 23.4 10ZM22.32 18.1L19.62 15.4L20.3814 14.6386L22.32 16.5718L26.4186 12.4732L27.18 13.24L22.32 18.1Z" fill="url(#paint0_linear_1944_1487)"/>
<path d="M23.6667 0C24.4623 0 25.2254 0.316071 25.788 0.87868C26.3506 1.44129 26.6667 2.20435 26.6667 3V10.344C25.6807 9.68329 24.5202 9.33143 23.3333 9.33333C22.3474 9.33264 21.3765 9.57515 20.5066 10.0394C19.6368 10.5036 18.8949 11.1752 18.3467 11.9947H15.0027L14.8667 12.004C14.6273 12.0369 14.408 12.1554 14.2492 12.3375C14.0904 12.5196 14.003 12.7531 14.003 12.9947C14.003 13.2363 14.0904 13.4697 14.2492 13.6518C14.408 13.8339 14.6273 13.9524 14.8667 13.9853L15.0027 13.9947H17.4827C17.2811 14.8808 17.2829 15.8012 17.4879 16.6866C17.693 17.5719 18.096 18.3994 18.6667 19.1067V21.3413H3C2.60592 21.3413 2.21571 21.2637 1.85164 21.1128C1.48758 20.962 1.1568 20.7409 0.878209 20.4622C0.599615 20.1835 0.378665 19.8526 0.227979 19.4885C0.0772933 19.1243 -0.000174849 18.7341 2.96323e-07 18.34V3C2.96323e-07 2.20435 0.316071 1.44129 0.87868 0.87868C1.44129 0.316071 2.20435 0 3 0H23.6667ZM5.66667 11.3333C5.42502 11.3333 5.19154 11.4209 5.00943 11.5797C4.82731 11.7385 4.70887 11.9579 4.676 12.1973L4.66667 12.3333V12.9893L4.67733 13.1333C4.89333 14.6187 6.136 15.3333 8 15.3333C9.77467 15.3333 10.9867 14.6853 11.2853 13.3413L11.3227 13.1347L11.3333 12.9907V12.3333C11.3333 12.0917 11.2458 11.8582 11.087 11.6761C10.9281 11.494 10.7087 11.3755 10.4693 11.3427L10.3333 11.3333H5.66667ZM8 6.00267C7.46957 6.00267 6.96086 6.21338 6.58579 6.58845C6.21071 6.96353 6 7.47223 6 8.00267C6 8.5331 6.21071 9.04181 6.58579 9.41688C6.96086 9.79195 7.46957 10.0027 8 10.0027C8.53043 10.0027 9.03914 9.79195 9.41421 9.41688C9.78929 9.04181 10 8.5331 10 8.00267C10 7.47223 9.78929 6.96353 9.41421 6.58845C9.03914 6.21338 8.53043 6.00267 8 6.00267ZM21 7.33333H15.0027L14.8667 7.34267C14.6273 7.3756 14.408 7.49407 14.2492 7.67618C14.0904 7.85829 14.003 8.09173 14.003 8.33333C14.003 8.57494 14.0904 8.80837 14.2492 8.99048C14.408 9.1726 14.6273 9.29107 14.8667 9.324L15.0027 9.33333H21L21.136 9.324C21.3753 9.29107 21.5947 9.1726 21.7535 8.99048C21.9122 8.80837 21.9997 8.57494 21.9997 8.33333C21.9997 8.09173 21.9122 7.85829 21.7535 7.67618C21.5947 7.49407 21.3753 7.3756 21.136 7.34267L21 7.33333Z" fill="url(#paint1_linear_1944_1487)"/>
<defs>
<linearGradient id="paint0_linear_1944_1487" x1="23.4" y1="10" x2="23.4" y2="20.8" gradientUnits="userSpaceOnUse">
<stop stop-color="#BF00FF"/>
<stop offset="1" stop-color="#300039" stop-opacity="0.85"/>
</linearGradient>
<linearGradient id="paint1_linear_1944_1487" x1="13.3333" y1="0" x2="13.3333" y2="21.3413" gradientUnits="userSpaceOnUse">
<stop stop-color="#BF00FF"/>
<stop offset="1" stop-color="#300039" stop-opacity="0.85"/>
</linearGradient>
</defs>
</svg>
