<svg width="25" height="33" viewBox="0 0 25 33" fill="none" xmlns="http://www.w3.org/2000/svg">
<path d="M3.04762 11.237H16.7619V8.18936C16.7619 6.91952 16.3175 5.84015 15.4286 4.95126C14.5397 4.06238 13.4603 3.61793 12.1905 3.61793C10.9206 3.61793 9.84127 4.06238 8.95238 4.95126C8.06349 5.84015 7.61905 6.91952 7.61905 8.18936H4.57143C4.57143 6.08142 5.31454 4.28434 6.80076 2.79812C8.28597 1.31292 10.0825 0.570312 12.1905 0.570312C14.2984 0.570312 16.0955 1.31292 17.5817 2.79812C19.0669 4.28434 19.8095 6.08142 19.8095 8.18936V11.237H21.3333C22.1714 11.237 22.8891 11.5351 23.4865 12.1315C24.0828 12.7288 24.381 13.4465 24.381 14.2846V29.5227C24.381 30.3608 24.0828 31.0785 23.4865 31.6758C22.8891 32.2722 22.1714 32.5703 21.3333 32.5703H3.04762C2.20952 32.5703 1.49232 32.2722 0.896 31.6758C0.298666 31.0785 0 30.3608 0 29.5227V14.2846C0 13.4465 0.298666 12.7288 0.896 12.1315C1.49232 11.5351 2.20952 11.237 3.04762 11.237ZM12.1905 24.9513C13.0286 24.9513 13.7463 24.6531 14.3436 24.0568C14.9399 23.4595 15.2381 22.7417 15.2381 21.9036C15.2381 21.0656 14.9399 20.3478 14.3436 19.7505C13.7463 19.1542 13.0286 18.856 12.1905 18.856C11.3524 18.856 10.6352 19.1542 10.0389 19.7505C9.44152 20.3478 9.14286 21.0656 9.14286 21.9036C9.14286 22.7417 9.44152 23.4595 10.0389 24.0568C10.6352 24.6531 11.3524 24.9513 12.1905 24.9513Z" fill="url(#paint0_linear_1465_6524)"/>
<defs>
<linearGradient id="paint0_linear_1465_6524" x1="12.1905" y1="0.570312" x2="12.1905" y2="32.5703" gradientUnits="userSpaceOnUse">
<stop stop-color="#BF00FF"/>
<stop offset="1" stop-color="#300039" stop-opacity="0.85"/>
</linearGradient>
</defs>
</svg>
